<svg width="341" height="341" viewBox="0 0 341 341" fill="none" xmlns="http://www.w3.org/2000/svg">
<circle cx="170.5" cy="170.5" r="170.5" fill="white"/>
<path d="M107.78 199.029L107.666 177.419L150.076 136.316L99 71H227.065L227.294 99.8416L213.809 86.5185H130.832L171.346 137.696L107.78 199.029Z" fill="#821923"/>
<path d="M227.291 214.106L107.915 213.937L107.893 210.595L177.468 145.285L187.487 157.83L145.342 198.638L213.343 198.731L227.291 186.006V214.106Z" fill="#821923"/>
<path d="M143.645 270.802H135.556V245.128H116.305V270.802H108.217V237.415H143.645V270.802Z" fill="#821923"/>
<path d="M224.007 270.802H215.919V245.128H196.668V270.802H188.58V237.415H224.007V270.802Z" fill="#821923"/>
<path d="M181.902 271H150.586V263.287H173.813V244.931H150.586V237.218H181.902V271Z" fill="#821923"/>
<path d="M209.041 253.804H199.636V262.224H209.041V253.804Z" fill="#821923"/>
<path d="M224.091 225.616H215.836V234.036H224.091V225.616Z" fill="#821923"/>
<path d="M242.599 262.773H233.769V270.645H242.599V262.773Z" fill="#821923"/>
</svg>
