<svg width="224" height="215" viewBox="0 0 224 215" fill="none" xmlns="http://www.w3.org/2000/svg">
<mask id="mask0_1544_44942" style="mask-type:luminance" maskUnits="userSpaceOnUse" x="-1" y="0" width="225" height="168">
<path d="M128.123 27.2059L128.504 27.3074L128.551 27.1924L128.116 27.2059H128.123ZM132.7 25.3991L130.481 26.3329L129.57 26.4074L129.121 26.272L128.88 26.4615L128.565 27.1924L130.187 27.1653L130.408 26.7863L138.047 26.1841L148.495 25.5818L139.113 25.0472L138.349 25.7374L137.055 25.6562L136.895 25.4329L136.104 25.1554L134.609 25.954H133.691L133.464 24.5938L132.706 25.4058L132.7 25.3991ZM129.342 0.157484L128.732 0.692091L127.198 0.847736L127.044 1.36881L125.449 1.45002C125.449 1.45002 105.606 9.39468 81.9501 13.7798C82.5599 13.0963 83.096 12.3384 83.096 12.3384C83.096 12.3384 74.3172 14.4565 72.1795 16.507C71.5696 15.6679 70.9598 15.0656 70.9598 15.0656L70.4237 15.7491L70.9598 16.5814L70.6516 17.3394L69.7402 17.7115H69.1304L68.9025 17.1093L66.4699 17.0213L66.2354 18.3138L65.5518 18.7672L63.7156 19.9853L63.0321 20.5064L61.0485 20.3575L60.6665 19.2139C60.6665 19.2139 54.0992 24.7426 48.3829 26.4818C54.8698 19.6673 68.4535 9.83455 68.4535 9.83455L68.3731 9.00895L67.3076 8.93451C67.3076 8.93451 42.4321 25.2705 38.8469 28.4511C41.2929 25.9472 43.5713 24.1336 43.5713 24.1336C43.5713 24.1336 32.9698 29.5067 31.0599 34.5686C30.6779 33.8986 30.5238 33.5873 30.5238 33.5873C30.5238 33.5873 32.7352 32.0783 33.8074 28.4511C36.0323 24.4449 39.4567 20.4996 39.4567 20.4996L33.8074 26.4818L31.978 26.8608L29.5387 30.7248L29.9273 31.0294L26.7174 34.5009L27.4009 35.6378L27.1061 36.9303L26.3354 36.1792L25.4977 34.8866L15.191 45.775L14.6549 44.7938L7.10918 51.5271L11.0764 50.4647L-0.000976562 61.2786C-0.000976562 61.2786 15.3385 68.0864 40.7433 56.2845C65.6523 44.7261 93.396 52.8941 93.396 52.8941C93.396 52.8941 35.9385 60.8252 23.1187 105.976C11.1233 148.203 58.1401 167.699 81.2598 167.929L111.322 167.706C111.322 167.706 107.442 167.246 103.549 165.879C113.688 165.202 117.89 163.842 117.89 163.842C117.89 163.842 117.427 163.916 114.385 162.935C132.237 161.338 136.968 158.476 136.968 158.476L135.139 158.022V157.643C135.139 157.643 148.488 156.364 171.996 144.867C159.177 150.159 144.668 151.221 144.668 151.221L146.732 148.873C146.732 148.873 148.106 149.252 148.944 148.954C153.139 146.762 153.212 143.581 153.212 143.581C153.212 143.581 153.293 146.071 155.122 144.109C157.253 142.207 155.585 140.631 155.585 140.631L154.365 140.103C154.365 140.103 156.731 137.606 159.177 135.718C157.803 135.109 157.957 132.984 157.957 132.984L159.398 132.835L159.78 131.921L158.641 131.468L157.796 130.717L159.096 130.338C159.096 130.338 167.332 118.238 180.004 107.417C174.737 110.07 173.203 110.896 173.203 110.896C173.203 110.896 175.555 106.903 193.729 96.1499C205.959 88.909 208.613 82.602 208.613 82.602C208.613 82.602 199.633 95.974 185.037 95.6153C169.457 95.2431 157.89 97.3409 157.789 97.3545C157.87 97.3409 164.987 95.974 169.014 91.9881C169.014 91.9881 155.082 96.8199 146.806 91.3046C127.955 78.7447 97.2091 84.2667 97.2091 84.2667C97.2091 84.2667 68.2391 87.9278 62.2614 110.144C57.986 126.034 76.3008 130.399 76.3008 130.399C76.3008 130.399 88.0014 133.16 92.3238 122.095C94.9172 115.43 89.268 111.498 89.268 111.498C89.268 111.498 79.7654 102.22 86.8287 94.4107C94.7631 85.6337 118.881 91.3723 118.881 91.3723C118.881 91.3723 151.544 99.3982 130.173 137.518C116.288 161.724 86.0647 159.308 86.0647 159.308C86.0647 159.308 55.3858 160.661 51.5728 128.747C50.5005 119.212 51.8743 114.063 51.8743 114.063L53.3218 112.838L52.6919 112.384V111.762C52.6919 111.762 52.7522 111.132 53.9584 111.132C55.1647 111.132 54.5817 109.772 54.5817 109.772L53.2682 109.664C53.2682 109.664 53.2079 108.25 54.5214 107.174C53.8914 106.998 53.9584 106.659 53.9584 106.659C53.9584 106.659 54.5817 105.191 55.8951 105.746C56.0091 107.85 57.3292 106.375 57.3292 106.375C57.3292 106.375 55.9555 106.598 56.8132 103.533C58.2473 100.474 62.8244 97.8079 62.8244 97.8079C62.8244 97.8079 62.1341 97.747 61.5109 97.0702C65.6925 95.71 67.3411 92.2452 67.3411 92.2452L66.6508 92.0761C66.6508 92.0761 66.1415 92.8137 65.0559 92.6445C65.2771 91.7918 65.6255 91.3926 65.6255 91.3926L65.0559 91.2843V90.0324L63.5682 89.9241C63.5682 89.9241 62.4759 89.2406 63.6218 88.0496C66.6039 87.4812 66.3761 84.4765 66.3761 84.4765L67.4617 84.8149L68.2056 83.678L68.6613 82.4261L69.2309 81.8035L71.0067 82.5411L72.0387 83.0554L74.6188 85.2683L72.5011 81.5666L72.9568 80.6057L73.2383 79.6989L71.8109 79.5297L71.7506 78.853L73.2383 78.2846L73.3522 77.8312L73.8079 77.662L74.0358 76.3018L76.2673 76.1394L77.2993 73.8656C77.2993 73.8656 89.1071 57.3943 117.032 59.0049C138.087 60.2162 143.449 72.8573 168.619 71.1046C183.871 70.0489 187.993 71.7069 187.993 71.7069C187.993 71.7069 180.219 66.2593 171.976 65.8126C180.366 65.3525 186.927 64.4457 186.927 64.4457L185.862 63.8772L184.829 63.3156L184.032 62.9704L183 63.6539L181.626 63.769L179.455 62.8554L178.423 62.517L177.398 62.6253L176.366 63.8772L174.878 63.6539L170.643 62.8554L175.22 62.6253L176.587 61.7185L177.626 61.1568H178.993L179.113 61.9486L181.398 62.1787L182.424 62.8554L183.918 62.1787L185.406 62.6253L186.552 62.1787L187.691 61.6102L188.495 61.3869L189.755 61.7185L191.812 59.9049L192.844 59.7966L193.521 60.9335L194.104 61.3937L193.521 62.2937H194.674L195.016 60.8252L194.788 60.25L196.389 59.7966H198.112L198.339 60.9335L198.916 60.25L199.03 59.4583L200.524 58.4432L206.24 55.3777L208.184 54.8092L209.102 54.1325L213.337 53.6723C213.337 53.6723 219.181 51.8587 223.986 45.7344C223.986 45.7344 205.094 57.868 176.942 51.2903C157.32 46.6954 154.171 41.8771 154.171 41.8771L155.658 41.3087L153.373 40.632L152.227 40.0703L150.163 40.2936L148.562 39.0485H145.472L145.017 38.2499L141.927 38.0198L141.579 37.4514L147.764 37.3364L149.138 38.5951L150.626 38.3582L152.455 39.2718L153.259 39.3868L154.285 40.0703H156.349L157.032 40.9703L156.456 41.6538L157.488 42.7907L158.862 43.1291V41.6538L158.058 40.747L158.862 39.5019H157.709L157.146 39.0417L156.912 36.9912L155.545 36.6529C155.545 36.6529 134.475 23.9441 117.085 31.2121C117.085 31.2121 118.111 29.9601 120.021 29.2834C120.557 29.209 120.175 28.6744 120.175 28.6744L120.63 28.4511L123.07 28.5999L122.835 28.0721L126.347 27.9977L126.119 27.2397L128.109 27.2059L126.038 26.6307L125.174 27.7473L124.477 26.969L123.438 26.6307L123.599 27.8285L122.373 27.551L120.845 27.9977L119.779 28.221L118.553 27.9977L118.479 27.3142L117.112 28.221L116.341 28.0721L115.269 27.9232L115.122 25.954L117.025 24.8171C117.025 24.8171 101.538 24.2148 87.4184 29.6624C73.3053 35.11 71.8511 37.607 56.1364 40.8621C68.2659 36.998 75.3626 32.2339 79.0283 29.9669C89.1741 24.2216 110.464 12.7241 117.715 8.48788C117.869 7.65552 118.097 7.65552 118.097 7.65552L118.942 8.18336L120.088 6.89759L121.307 6.59984V6.13967L123.21 6.06523L123.284 5.38175L124.209 5.46295L124.437 4.77947L126.038 4.32607L124.142 4.09598L124.061 3.56814L126.045 3.4125L126.28 2.81022L127.265 3.33129L128.94 1.51769L130.321 1.29437L131.085 0.00860596L129.329 0.157484H129.342Z" fill="white"/>
</mask>
<g mask="url(#mask0_1544_44942)">
<path d="M-78.1123 116.433L155.31 270.305L302.11 51.4952L68.6879 -102.377L-78.1123 116.433Z" fill="#E41E26"/>
</g>
<path d="M51.3248 214.194H48.6443L48.1484 207.149H48.0344C45.4142 212.678 40.1603 215.013 34.5312 215.013C22.2208 215.013 16.0957 205.417 16.0957 194.84C16.0957 184.263 22.2208 174.667 34.5312 174.667C42.7336 174.667 49.4082 179.059 50.8356 187.518H47.1096C46.6204 183.072 41.9697 177.807 34.5312 177.807C24.191 177.807 19.815 186.374 19.815 194.833C19.815 203.292 24.1977 211.859 34.5312 211.859C43.1692 211.859 48.202 205.843 48.0344 197.655H34.7456V194.502H51.3181V214.187L51.3248 214.194Z" fill="#E41E26"/>
<path d="M57.4973 194.784C57.8256 188.22 62.4764 185.405 68.9298 185.405C73.9089 185.405 79.3236 186.92 79.3236 194.405V209.266C79.3236 210.572 79.9804 211.323 81.3407 211.323C81.7294 211.323 82.165 211.215 82.4331 211.106V213.982C81.6691 214.145 81.1263 214.192 80.1881 214.192C76.69 214.192 76.1472 212.243 76.1472 209.313H76.0333C73.6275 212.947 71.1681 215.004 65.7534 215.004C60.3386 215.004 56.291 212.46 56.291 206.816C56.291 198.952 64.0043 198.689 71.4428 197.816C74.2842 197.491 75.8724 197.112 75.8724 194.012C75.8724 189.411 72.5351 188.267 68.4875 188.267C64.2187 188.267 61.0423 190.216 60.9418 194.77H57.4906L57.4973 194.784ZM75.8791 198.905H75.7719C75.3296 199.717 73.8017 199.988 72.8702 200.15C67.0132 201.179 59.7422 201.125 59.7422 206.606C59.7422 210.024 62.8047 212.135 66.0348 212.135C71.282 212.135 75.9327 208.826 75.8791 203.351V198.905Z" fill="#E41E26"/>
<path d="M86.2129 186.218H89.3893V192.775H89.4966C91.2523 188.275 95.0788 185.615 100.165 185.832V189.249C93.9262 188.918 89.6641 193.479 89.6641 199.278V214.186H86.2196V186.211L86.2129 186.218Z" fill="#E41E26"/>
<path d="M104.487 201.125C104.541 206.112 107.161 212.135 113.782 212.135C118.815 212.135 121.549 209.205 122.641 204.975H126.086C124.611 211.323 120.885 215.011 113.775 215.011C104.802 215.011 101.029 208.183 101.029 200.211C101.029 192.835 104.802 185.405 113.775 185.405C122.748 185.405 126.468 193.268 126.193 201.132H104.481L104.487 201.125ZM122.748 198.249C122.588 193.099 119.358 188.274 113.782 188.274C108.206 188.274 105.03 193.153 104.487 198.249H122.748Z" fill="#E41E26"/>
<path d="M130.79 186.218H134.234V191.043H134.342C135.595 187.68 139.374 185.399 143.368 185.399C151.296 185.399 153.702 189.521 153.702 196.193V214.194H150.257V196.734C150.257 191.909 148.669 188.282 143.087 188.282C137.505 188.282 134.335 192.403 134.228 197.878V214.194H130.783V186.218H130.79Z" fill="#E41E26"/>
<path d="M159.88 194.784C160.208 188.22 164.859 185.405 171.313 185.405C176.292 185.405 181.706 186.92 181.706 194.405V209.266C181.706 210.572 182.363 211.323 183.73 211.323C184.112 211.323 184.548 211.215 184.823 211.106V213.982C184.059 214.145 183.509 214.192 182.584 214.192C179.086 214.192 178.537 212.243 178.537 209.313H178.423C176.017 212.947 173.558 215.004 168.136 215.004C162.715 215.004 158.674 212.46 158.674 206.816C158.674 198.952 166.387 198.689 173.826 197.816C176.674 197.491 178.255 197.112 178.255 194.012C178.255 189.411 174.918 188.267 170.87 188.267C166.602 188.267 163.432 190.216 163.325 194.77H159.873L159.88 194.784ZM178.262 198.905H178.155C177.726 199.717 176.185 199.988 175.26 200.15C169.403 201.179 162.132 201.125 162.132 206.606C162.132 210.024 165.194 212.135 168.424 212.135C173.678 212.135 178.322 208.826 178.269 203.351V198.905H178.262Z" fill="#E41E26"/>
</svg>
