<svg width="462" height="441" viewBox="0 0 462 441" fill="none" xmlns="http://www.w3.org/2000/svg">
<g clip-path="url(#clip0_1327_31411)">
<mask id="mask0_1327_31411" style="mask-type:luminance" maskUnits="userSpaceOnUse" x="-1" y="0" width="463" height="345">
<path d="M264.253 55.8036L265.041 56.0119L265.137 55.7759L264.239 55.8036H264.253ZM273.693 52.0975L269.118 54.013L267.238 54.1657L266.312 53.8881L265.815 54.2768L265.165 55.7759L268.51 55.7204L268.966 54.943L284.723 53.7077L306.27 52.4723L286.92 51.3757L285.344 52.7916L282.677 52.625L282.345 52.1669L280.714 51.5978L277.632 53.2357H275.738L275.269 50.4457L273.707 52.1114L273.693 52.0975ZM266.768 0.322951L265.511 1.41952L262.345 1.73877L262.027 2.80758L258.738 2.97414C258.738 2.97414 217.812 19.2699 169.022 28.2646C170.28 26.8626 171.386 25.308 171.386 25.308C171.386 25.308 153.279 29.6526 148.87 33.8584C147.612 32.1372 146.355 30.9019 146.355 30.9019L145.249 32.3038L146.355 34.0111L145.719 35.5658L143.839 36.3292H142.581L142.111 35.0938L137.094 34.9134L136.61 37.5646L135.201 38.4946L131.414 40.9931L130.004 42.0619L125.913 41.7565L125.125 39.4107C125.125 39.4107 111.58 50.7511 99.7898 54.3184C113.169 40.3407 141.185 20.1722 141.185 20.1722L141.02 18.4788L138.822 18.3261C138.822 18.3261 87.5163 51.8338 80.1217 58.3577C85.1666 53.2219 89.8659 49.5019 89.8659 49.5019C89.8659 49.5019 68.0002 60.523 64.061 70.9057C63.2732 69.5315 62.9553 68.893 62.9553 68.893C62.9553 68.893 67.5164 65.7977 69.7279 58.3577C74.3167 50.1404 81.3795 42.048 81.3795 42.048L69.7279 54.3184L65.9546 55.0957L60.9236 63.0215L61.7252 63.6462L55.1047 70.7669L56.5145 73.0989L55.9063 75.75L54.3168 74.2093L52.5891 71.5581L31.3316 93.892L30.2258 91.8793L14.6627 105.69L22.8451 103.511L-0.00195312 125.692C-0.00195312 125.692 31.6356 139.656 84.0332 115.449C135.408 91.7405 192.629 108.494 192.629 108.494C192.629 108.494 74.1232 124.762 47.6825 217.374C22.9419 303.988 119.914 343.978 167.598 344.45L229.602 343.992C229.602 343.992 221.599 343.048 213.569 340.245C234.481 338.857 243.147 336.067 243.147 336.067C243.147 336.067 242.194 336.219 235.919 334.206C272.739 330.931 282.497 325.059 282.497 325.059L278.724 324.129V323.352C278.724 323.352 306.257 320.728 354.743 297.145C328.302 308 298.378 310.179 298.378 310.179L302.635 305.363C302.635 305.363 305.469 306.14 307.196 305.529C315.849 301.032 316.001 294.508 316.001 294.508C316.001 294.508 316.167 299.616 319.94 295.591C324.335 291.69 320.894 288.456 320.894 288.456L318.378 287.373C318.378 287.373 323.257 282.251 328.302 278.379C325.469 277.13 325.786 272.771 325.786 272.771L328.758 272.466L329.546 270.592L327.196 269.662L325.455 268.121L328.136 267.344C328.136 267.344 345.123 242.525 371.259 220.33C360.396 225.771 357.23 227.465 357.23 227.465C357.23 227.465 362.082 219.275 399.566 197.219C424.79 182.367 430.264 169.43 430.264 169.43C430.264 169.43 411.743 196.858 381.639 196.122C349.504 195.359 325.648 199.662 325.441 199.69C325.607 199.662 340.285 196.858 348.592 188.682C348.592 188.682 319.857 198.593 302.787 187.281C263.907 161.518 200.494 172.845 200.494 172.845C200.494 172.845 140.743 180.354 128.414 225.924C119.596 258.516 157.371 267.469 157.371 267.469C157.371 267.469 181.503 273.132 190.418 250.437C195.767 236.765 184.115 228.7 184.115 228.7C184.115 228.7 164.516 209.67 179.084 193.652C195.449 175.649 245.193 187.419 245.193 187.419C245.193 187.419 312.559 203.882 268.482 282.071C239.844 331.722 177.509 326.767 177.509 326.767C177.509 326.767 114.233 329.543 106.369 264.082C104.157 244.524 106.991 233.961 106.991 233.961L109.976 231.449L108.677 230.519V229.242C108.677 229.242 108.801 227.951 111.289 227.951C113.777 227.951 112.575 225.161 112.575 225.161L109.866 224.939C109.866 224.939 109.741 222.038 112.45 219.83C111.151 219.47 111.289 218.776 111.289 218.776C111.289 218.776 112.575 215.763 115.284 216.902C115.519 221.219 118.242 218.193 118.242 218.193C118.242 218.193 115.408 218.651 117.177 212.363C120.135 206.089 129.575 200.62 129.575 200.62C129.575 200.62 128.152 200.495 126.866 199.107C135.491 196.317 138.891 189.21 138.891 189.21L137.467 188.863C137.467 188.863 136.417 190.376 134.178 190.029C134.634 188.28 135.353 187.461 135.353 187.461L134.178 187.239V184.671L131.11 184.449C131.11 184.449 128.857 183.047 131.22 180.604C137.371 179.438 136.901 173.275 136.901 173.275L139.14 173.969L140.674 171.637L141.614 169.069L142.789 167.792L146.451 169.305L148.58 170.36L153.901 174.899L149.534 167.306L150.474 165.335L151.054 163.475L148.11 163.128L147.986 161.74L151.054 160.574L151.289 159.644L152.229 159.297L152.699 156.507L157.301 156.174L159.43 151.51C159.43 151.51 183.784 117.725 241.378 121.029C284.805 123.513 295.863 149.442 347.777 145.847C379.234 143.682 387.735 147.082 387.735 147.082C387.735 147.082 371.702 135.908 354.701 134.992C372.006 134.048 385.537 132.188 385.537 132.188L383.339 131.023L381.211 129.87L379.566 129.163L377.438 130.564L374.604 130.8L370.126 128.927L367.998 128.233L365.883 128.455L363.754 131.023L360.686 130.564L351.951 128.927L361.391 128.455L364.21 126.595L366.353 125.443H369.172L369.421 127.067L374.134 127.539L376.249 128.927L379.331 127.539L382.4 128.455L384.763 127.539L387.113 126.373L388.771 125.914L391.37 126.595L395.613 122.875L397.742 122.653L399.138 124.984L400.34 125.928L399.138 127.774H401.515L402.22 124.762L401.75 123.583L405.053 122.653H408.605L409.075 124.984L410.264 123.583L410.499 121.959L413.581 119.876L425.371 113.589L429.379 112.423L431.273 111.034L440.008 110.091C440.008 110.091 452.06 106.371 461.97 93.8087C461.97 93.8087 423.007 118.697 364.943 105.205C324.473 95.7797 317.977 85.8967 317.977 85.8967L321.046 84.7308L316.332 83.3427L313.969 82.1906L309.712 82.6487L306.409 80.0947H300.037L299.097 78.4568L292.725 77.9848L292.006 76.8188L304.764 76.5829L307.597 79.1647L310.666 78.6788L314.439 80.5527L316.097 80.7887L318.212 82.1906H322.469L323.879 84.0367L322.69 85.4387L324.819 87.7706L327.652 88.4647V85.4387L325.994 83.5787L327.652 81.0247H325.275L324.114 80.0808L323.63 75.875L320.811 75.1809C320.811 75.1809 277.356 49.1132 241.489 64.0209C241.489 64.0209 243.603 61.453 247.542 60.065C248.648 59.9123 247.86 58.8157 247.86 58.8157L248.8 58.3577L253.831 58.663L253.348 57.5804L260.59 57.4277L260.12 55.873L264.225 55.8036L259.954 54.6238L258.171 56.9141L256.734 55.3178L254.591 54.6238L254.923 57.0807L252.394 56.5116L249.243 57.4277L247.045 57.8857L244.516 57.4277L244.364 56.0257L241.544 57.8857L239.954 57.5804L237.743 57.275L237.439 53.2357L241.364 50.9038C241.364 50.9038 209.423 49.6684 180.301 60.8423C151.192 72.0162 148.193 77.1381 115.781 83.8147C140.798 75.8888 155.435 66.1169 162.996 61.4669C183.922 49.6823 227.833 26.0992 242.788 17.4099C243.106 15.7026 243.576 15.7026 243.576 15.7026L245.317 16.7853L247.681 14.148L250.196 13.5373V12.5934L254.122 12.4407L254.274 11.0388L256.181 11.2053L256.651 9.80339L259.954 8.87339L256.043 8.40145L255.877 7.31877L259.968 6.99951L260.452 5.76414L262.484 6.83294L265.939 3.11295L268.786 2.65489L270.362 0.0175781L266.741 0.322951H266.768Z" fill="white"/>
</mask>
<g mask="url(#mask0_1327_31411)">
<path d="M-161.105 238.823L320.328 554.44L623.103 105.625L141.67 -209.992L-161.105 238.823Z" fill="#E41E26"/>
</g>
<path d="M105.857 439.347H100.329L99.3059 424.897H99.0709C93.6667 436.238 82.8305 441.027 71.2204 441.027C45.8302 441.027 33.1973 421.344 33.1973 399.649C33.1973 377.953 45.8302 358.271 71.2204 358.271C88.138 358.271 101.904 367.279 104.848 384.63H97.1635C96.1545 375.51 86.5624 364.711 71.2204 364.711C49.8937 364.711 40.8682 382.284 40.8682 399.635C40.8682 416.985 49.9075 434.558 71.2204 434.558C89.0364 434.558 99.4164 422.218 99.0709 405.423H71.6627V398.954H105.843V439.333L105.857 439.347Z" fill="#E41E26"/>
<path d="M118.587 399.534C119.265 386.069 128.857 380.295 142.167 380.295C152.437 380.295 163.604 383.404 163.604 398.756V429.238C163.604 431.917 164.959 433.458 167.765 433.458C168.566 433.458 169.465 433.236 170.018 433.014V438.913C168.442 439.246 167.322 439.343 165.387 439.343C158.172 439.343 157.053 435.345 157.053 429.335H156.818C151.856 436.789 146.784 441.009 135.616 441.009C124.448 441.009 116.1 435.79 116.1 424.213C116.1 408.084 132.008 407.543 147.35 405.752C153.211 405.086 156.486 404.308 156.486 397.951C156.486 388.512 149.603 386.167 141.255 386.167C132.451 386.167 125.899 390.164 125.692 399.506H118.574L118.587 399.534ZM156.5 407.987H156.279C155.367 409.652 152.215 410.208 150.294 410.541C138.214 412.651 123.218 412.54 123.218 423.783C123.218 430.793 129.534 435.123 136.196 435.123C147.018 435.123 156.611 428.336 156.5 417.106V407.987Z" fill="#E41E26"/>
<path d="M177.812 381.963H184.364V395.413H184.585C188.206 386.182 196.098 380.727 206.589 381.172V388.181C193.721 387.501 184.931 396.857 184.931 408.752V439.331H177.826V381.949L177.812 381.963Z" fill="#E41E26"/>
<path d="M215.505 412.54C215.616 422.77 221.02 435.123 234.676 435.123C245.056 435.123 250.695 429.113 252.948 420.438H260.052C257.011 433.458 249.326 441.023 234.662 441.023C216.155 441.023 208.373 427.017 208.373 410.666C208.373 395.536 216.155 380.295 234.662 380.295C253.169 380.295 260.84 396.424 260.273 412.554H215.491L215.505 412.54ZM253.169 406.64C252.837 396.077 246.175 386.18 234.676 386.18C223.176 386.18 216.625 396.188 215.505 406.64H253.169Z" fill="#E41E26"/>
<path d="M269.754 381.964H276.858V391.861H277.079C279.664 384.962 287.459 380.284 295.697 380.284C312.048 380.284 317.01 388.737 317.01 402.424V439.346H309.906V403.534C309.906 393.637 306.63 386.197 295.117 386.197C283.603 386.197 277.066 394.651 276.845 405.88V439.346H269.74V381.964H269.754Z" fill="#E41E26"/>
<path d="M329.754 399.534C330.431 386.069 340.023 380.295 353.333 380.295C363.603 380.295 374.77 383.404 374.77 398.756V429.238C374.77 431.917 376.125 433.458 378.945 433.458C379.732 433.458 380.631 433.236 381.197 433.014V438.913C379.622 439.246 378.488 439.343 376.581 439.343C369.366 439.343 368.233 435.345 368.233 429.335H367.998C363.036 436.789 357.963 441.009 346.782 441.009C335.6 441.009 327.266 435.79 327.266 424.213C327.266 408.084 343.174 407.543 358.516 405.752C364.39 405.086 367.652 404.308 367.652 397.951C367.652 388.512 360.769 386.167 352.421 386.167C343.617 386.167 337.079 390.164 336.858 399.506H329.74L329.754 399.534ZM367.666 407.987H367.445C366.56 409.652 363.381 410.208 361.474 410.541C349.394 412.651 334.398 412.54 334.398 423.783C334.398 430.793 340.714 435.123 347.376 435.123C358.212 435.123 367.79 428.336 367.68 417.106V407.987H367.666Z" fill="#E41E26"/>
</g>
<defs>
<clipPath id="clip0_1327_31411">
<rect width="462" height="441" fill="white"/>
</clipPath>
</defs>
</svg>
