<svg width="500" height="150" viewBox="0 0 500 150" fill="none" xmlns="http://www.w3.org/2000/svg">
<g clip-path="url(#clip0_1544_44922)">
<path fill-rule="evenodd" clip-rule="evenodd" d="M37.799 22.461C40.526 20.62 43.251 18.776 45.98 16.937C49.965 14.252 53.944 11.557 57.949 8.90099C58.593 8.47399 59.457 7.40799 60.076 8.22299C60.821 9.20399 59.371 9.49399 58.825 9.95099C54.236 13.781 49.596 17.551 44.982 21.352C44.338 21.883 43.757 22.489 43.147 23.06C43.205 23.162 43.261 23.265 43.318 23.367C44.171 22.996 45.043 22.668 45.869 22.245C46.763 21.789 47.627 21.267 48.477 20.734C49.282 20.23 50.06 19.685 50.835 19.136C51.653 18.557 52.454 17.952 53.255 17.365C54.431 18.558 54.955 18.613 56.294 17.719C58.212 16.439 58.212 16.439 58.803 15.23C59.446 15.326 60.161 15.362 60.835 15.549C62.036 15.881 62.377 15.601 62.213 14.32C62.189 14.131 62.274 13.928 62.343 13.532C62.857 13.921 63.232 14.204 63.683 14.545C66.519 12.847 69.725 11.956 73.087 11.087C72.954 11.433 72.862 11.673 72.668 12.179C74.408 11.851 76.018 11.597 77.605 11.241C88.499 8.79899 99.196 5.69199 109.637 1.72499C110.609 1.35599 111.606 1.04899 112.603 0.756986C113.535 0.484986 114.483 0.269986 115.546 -0.00201416C115.35 1.74899 113.577 1.35399 112.878 2.38999C112.264 3.29999 110.775 2.88699 109.782 3.43899C109.987 3.58999 110.202 3.74899 110.568 4.01899C109.858 4.49999 109.265 5.08299 108.554 5.34499C107.358 5.78499 106.291 6.50599 105.182 6.97199C104.035 7.45399 103.11 8.19799 102.073 8.77099C91.905 14.381 81.774 20.061 71.646 25.745C69.699 26.838 67.813 28.039 65.896 29.185C62.102 31.453 58.143 33.377 54.004 34.934C53.487 35.128 52.992 35.377 52.514 35.676C56.665 34.871 60.655 33.57 64.535 31.898C69.196 29.89 73.833 27.814 78.565 25.983C83.318 24.145 88.314 23.182 93.385 22.697C96.16 22.431 98.948 22.291 101.731 22.108C102.09 22.084 102.455 22.138 103.106 22.171C102.516 22.662 102.152 22.965 101.727 23.319C101.756 23.778 101.788 24.271 101.828 24.923C102.507 24.923 103.159 25.021 103.761 24.889C104.195 24.794 104.455 24.678 104.938 24.932C105.413 25.182 106.122 25.033 106.722 24.987C107.326 24.941 107.936 24.853 108.518 24.691C108.808 24.61 109.04 24.325 109.467 24.007C109.651 24.086 110.04 24.251 110.559 24.473C111.034 23.904 111.687 23.622 112.465 24.207C111.973 24.505 111.517 24.932 110.988 25.061C110.353 25.217 109.651 25.076 108.986 25.143C108.342 25.208 107.708 25.379 107.068 25.494C106.905 25.523 106.691 25.456 106.574 25.539C105.795 26.093 105.036 26.675 103.994 27.455C105.619 27.049 106.892 26.673 108.19 26.416C114.731 25.118 121.088 26.129 127.274 28.259C130.424 29.343 133.423 30.87 136.488 32.202C137.147 32.489 137.799 32.793 138.544 33.13C138.908 33.9 138.297 35.516 140.463 35.118C139.162 36.364 140.842 37.329 140.244 38.387C138.697 38.188 138.645 38.095 138.43 36.756C138.377 36.425 137.913 35.877 137.699 35.903C136.435 36.065 135.468 35.295 134.371 34.967C133.64 34.748 133.006 34.19 132.156 34.477C132.017 34.524 131.779 34.498 131.68 34.406C129.804 32.655 127.573 33.863 125.504 33.654C127.482 34.078 129.338 34.976 131.393 35.03C133.019 36.466 135.476 35.418 137.063 36.978C136.894 37.122 136.692 37.293 136.33 37.601C136.989 38.131 137.553 38.764 138.257 39.118C140.744 40.367 143.213 41.694 145.809 42.673C151.667 44.883 157.726 46.441 163.952 47.128C175.352 48.387 186.312 46.814 196.623 41.559C196.846 41.445 197.082 41.356 197.373 41.35C196.435 42.841 195.166 43.975 193.812 45.019C191.432 46.851 188.887 48.173 185.758 48.349C184.439 48.424 183.119 49.154 181.873 49.742C180.31 50.48 178.791 51.325 177.319 52.23C176.602 52.671 176.033 53.355 175.315 54.003C174.595 52.84 173.511 53.512 172.522 53.768C171.979 54.361 172.658 55.526 171.507 55.66C171.129 54.921 170.77 54.221 170.29 53.285C169.593 53.741 169.07 54.099 168.532 54.43C168.166 54.655 167.745 55.053 167.401 55.004C166.382 54.86 165.561 55.254 164.676 55.615C164.206 55.807 163.629 55.744 163.099 55.771C162.938 55.779 162.724 55.62 162.618 55.681C161.379 56.389 160.264 55.612 159.102 55.418C158.937 55.389 158.702 55.443 158.614 55.35C157.421 54.092 156.473 55.061 155.373 55.572C154.5 55.978 153.463 56.028 152.23 56.293C153.09 56.499 153.765 56.658 154.438 56.823C155.241 57.019 155.866 56.943 156.52 56.245C156.846 55.898 157.76 55.978 158.378 56.067C158.967 56.151 159.503 56.559 160.091 56.711C160.557 56.832 161.218 56.994 161.532 56.771C162.92 55.783 163.766 56.85 164.774 57.686C161.265 58.044 157.757 58.403 154.249 58.761C158.062 59.855 161.788 61.191 165.034 63.696C164.777 63.696 164.516 63.726 164.264 63.691C159.419 63.028 154.533 63.083 149.708 63.519C140.304 64.37 131.535 62.461 123.105 58.421C119.382 56.637 115.575 55.019 111.552 54.019C106.03 52.646 100.44 52.344 94.769 52.922C89.206 53.488 83.893 54.862 78.963 57.489C76.756 58.665 74.659 60.088 72.65 61.584C69.87 63.655 68.811 65.037 67.19 67.973C66.67 68.044 66.074 68.126 65.804 68.163C64.923 69.163 64.224 69.956 63.461 70.823C63.723 70.94 64.087 71.104 64.447 71.266C64.136 72.684 64.136 72.684 65.18 75.389C63.811 74.582 62.52 73.822 61.344 73.129C59.934 73.713 60.486 75.907 58.617 75.718C58.316 76.938 57.928 78.102 56.545 78.521C56.007 78.685 55.66 79.042 55.717 79.624C55.78 80.273 56.302 80.357 56.829 80.399C56.937 80.408 57.041 80.464 57.287 80.544C57.421 81.187 57.571 81.9 57.736 82.694C58.135 82.56 58.571 82.415 59.071 82.247C58.696 83.962 57.489 85.119 54.479 86.716C54.676 86.928 54.855 87.12 55.12 87.404C54.434 87.942 53.716 88.436 53.08 89.018C52.26 89.772 51.435 90.539 50.744 91.406C49.848 92.528 49.37 93.796 50.265 95.205C49.262 95.743 49.37 94.592 48.747 94.363C48.213 94.514 47.671 94.579 47.732 95.582C47.769 96.199 47.237 96.853 46.914 97.596C47.134 97.718 47.294 97.873 47.47 97.894C47.957 97.948 48.229 98.221 48.102 98.663C48.033 98.903 47.709 99.139 47.447 99.246C46.341 99.701 46.334 99.684 46.791 100.927C45.679 101.581 45.468 102.688 45.339 103.897C44.716 109.739 45.058 115.51 46.668 121.164C49.711 131.846 56.808 138.381 67.46 141.141C72.659 142.487 77.946 142.428 83.258 141.912C88.075 141.445 92.709 140.287 97.144 138.392C105.415 134.86 111.685 129.132 115.797 121.094C118.25 116.299 120.202 111.351 121.037 105.974C122.494 96.594 118.495 88.413 110.104 83.796C107.221 82.21 104.145 81.276 100.914 80.873C97.706 80.474 94.483 79.988 91.263 79.964C87.539 79.935 83.787 80.203 80.285 81.781C77.126 83.203 75.005 85.455 74.371 88.954C74.059 90.675 74.471 92.302 75.078 93.865C75.915 96.021 77.087 98.035 78.849 99.544C83.365 103.41 82.714 108.637 79.282 112.785C77.129 115.388 74.228 116.588 70.896 116.697C65.375 116.878 60.939 114.446 57.31 110.548C54.309 107.325 53.65 103.364 54.629 99.123C56.087 92.808 59.594 87.82 64.679 83.914C70.554 79.4 77.282 76.796 84.503 75.444C90.057 74.403 95.69 73.966 101.333 74.128C109.344 74.356 117.243 75.334 124.632 78.741C126.249 79.486 127.83 80.346 129.327 81.308C131.897 82.961 134.688 83.717 137.708 83.827C141.03 83.947 144.271 83.466 147.476 82.653C147.841 82.56 148.216 82.513 148.874 82.391C146.935 84.521 144.487 85.217 142.107 86.382C145.012 86.136 147.713 85.887 150.418 85.687C152.142 85.558 153.871 85.457 155.599 85.422C157.835 85.376 160.074 85.354 162.308 85.42C169.489 85.633 175.453 82.89 180.56 78.018C181.166 77.44 181.753 76.842 182.353 76.256C182.376 76.235 182.433 76.247 182.672 76.228C182.407 76.615 182.235 76.926 182.009 77.191C178.953 80.757 175.205 83.467 171.217 85.876C166.385 88.793 161.585 91.762 157.131 95.244C155.952 96.165 154.844 97.177 153.704 98.146C153.763 98.242 153.821 98.337 153.879 98.433C155.21 97.787 156.541 97.141 157.871 96.496C157.918 96.576 157.966 96.657 158.013 96.737C157.722 97.041 157.45 97.364 157.139 97.645C151.233 102.993 145.993 108.935 141.273 115.347C140.856 115.914 140.323 116.396 139.791 116.974C140.153 117.239 140.58 117.552 140.96 117.831C141.081 118.913 140.133 118.564 139.721 118.872C139.674 120.069 139.674 120.069 140.421 121.221C139.147 122.43 137.862 123.651 136.569 124.879C138.02 126.093 138.27 126.727 137.771 127.742C137.243 128.816 136.378 129.315 135.298 129.153C133.959 131.288 132.646 133.493 129.48 133.086C129.088 133.562 128.681 134.056 127.994 134.892C135.446 134.244 142.281 132.687 149.137 130.395C147.708 131.621 142.179 134.029 134.833 136.679C129.91 138.456 124.892 139.897 119.488 140.807C119.984 141.142 120.26 141.329 120.762 141.668C114.593 144.097 108.292 144.658 102.029 145.667C102.509 145.864 102.989 146.06 103.787 146.386C99.859 147.398 96.18 147.746 92.251 148.082C93.522 149.007 94.956 148.897 96.451 149.568C95.077 149.691 94.033 149.861 92.987 149.866C85.271 149.903 77.552 150.016 69.838 149.88C65.424 149.802 61.103 148.831 56.86 147.595C47.411 144.837 38.754 140.579 31.394 133.948C25.032 128.216 20.623 121.302 19.057 112.768C17.892 106.425 18.536 100.192 20.344 94.051C23.915 81.926 31.083 72.315 41.019 64.673C51 56.998 62.316 52.118 74.414 48.923C76.513 48.369 78.654 47.978 80.775 47.502C80.974 47.458 81.158 47.35 81.363 46.944C78.942 46.494 76.53 45.991 74.098 45.606C68.833 44.77 63.524 44.67 58.217 44.926C50.569 45.295 43.193 46.926 36.214 50.15C31.185 52.473 26.026 54.408 20.574 55.467C14.216 56.705 7.847 57 1.496 55.353C1.119 55.255 0.75 55.128 0.382 54.999C0.24 54.949 0.113 54.857 0 54.796C3.034 51.736 6.046 48.699 9.058 45.66C9.001 45.568 8.942 45.475 8.885 45.383C8.116 45.539 7.349 45.696 6.58 45.852C6.533 45.789 6.486 45.724 6.439 45.66C6.945 45.189 7.445 44.713 7.958 44.249C9.283 43.046 10.62 41.857 11.936 40.646C12.396 40.223 12.828 39.944 13.311 40.687C16.331 37.483 19.236 34.399 22.216 31.236C22.688 31.741 23.083 32.163 23.493 32.6C24.396 31.942 23.371 31.358 23.545 30.771C25.233 29.124 26.194 26.987 27.378 24.999C27.763 24.351 28.223 23.894 29.028 23.721C29.522 23.614 29.979 23.197 30.383 22.841C30.994 22.304 31.544 21.698 32.316 21.256C31.589 22.405 30.8 23.522 30.153 24.715C29.492 25.932 28.971 27.224 28.502 28.609C28.775 28.355 29.057 28.112 29.318 27.848C31.458 25.678 33.989 24.04 36.589 22.494C36.721 22.416 36.908 22.43 37.07 22.401C36.964 22.673 36.857 22.947 36.653 23.468C37.166 23.018 37.482 22.74 37.799 22.461ZM26.905 30.208C27.037 30.289 27.171 30.371 27.304 30.452C27.512 30.077 27.719 29.701 27.925 29.325C27.846 29.276 27.766 29.227 27.687 29.179C27.426 29.522 27.166 29.865 26.905 30.208Z" fill="#E12332"/>
<path fill-rule="evenodd" clip-rule="evenodd" d="M262.38 47.848C260.251 47.848 258.139 47.848 255.89 47.848C255.82 47.504 255.755 47.142 255.672 46.786C254.222 40.548 250.401 36.152 244.862 33.21C236.421 28.727 224.403 29.756 217.069 36.311C213.303 39.676 210.812 43.864 209.359 48.661C206.452 58.255 206.692 67.741 210.831 76.94C214.442 84.968 220.663 89.838 229.433 91.057C235.168 91.854 240.802 91.244 245.973 88.355C251.906 85.041 255.293 79.847 256.752 73.315C257.273 70.983 257.606 68.621 257.351 66.091C249.579 66.091 241.884 66.091 233.968 66.091C233.892 64.166 233.922 62.359 233.954 60.442C243.747 60.442 253.446 60.442 263.268 60.442C263.268 72.09 263.268 83.738 263.268 95.477C261.723 95.477 260.237 95.477 258.546 95.477C258.252 91.459 257.958 87.45 257.638 83.08C257.246 83.691 257.034 83.986 256.858 84.303C252.885 91.459 246.709 95.399 238.724 96.622C232.655 97.553 226.683 97.06 220.948 94.81C212.854 91.636 207.399 85.743 204.072 77.824C201.272 71.16 200.416 64.194 201.004 57.001C201.436 51.706 202.655 46.646 205.055 41.901C209.7 32.719 217.03 27.114 227.229 25.344C233.752 24.211 240.148 24.667 246.289 27.148C255.38 30.82 260.536 37.748 262.376 47.271C262.407 47.432 262.38 47.604 262.38 47.848Z" fill="#E12332"/>
<path fill-rule="evenodd" clip-rule="evenodd" d="M318.456 90.167C318.456 91.84 318.456 93.441 318.456 95.145C316.082 95.778 313.716 95.805 311.373 95.182C309.423 94.663 308.234 93.271 307.785 91.338C307.488 90.058 307.391 88.729 307.167 87.166C306.76 87.635 306.496 87.94 306.23 88.246C304.909 89.757 303.709 91.401 302.239 92.75C299.29 95.456 295.657 96.643 291.708 96.917C288.004 97.176 284.351 97.032 280.832 95.64C275.299 93.452 272.162 88.909 272.186 82.952C272.191 81.563 272.234 80.152 272.475 78.79C273.152 74.944 275.414 72.227 278.808 70.414C281.545 68.953 284.511 68.157 287.554 67.713C291.852 67.086 296.17 66.599 300.475 66.017C301.407 65.892 302.325 65.636 303.237 65.394C305.33 64.839 306.427 63.346 306.673 61.308C306.838 59.938 306.827 58.506 306.622 57.141C306.071 53.455 303.853 51.099 300.323 50.07C296.614 48.989 292.818 48.885 289.061 49.778C283.84 51.018 280.982 54.452 280.497 59.81C280.477 60.029 280.443 60.246 280.418 60.444C279.223 60.853 276.722 60.928 274.267 60.609C274.336 59.932 274.383 59.238 274.481 58.551C275.492 51.495 279.498 46.997 286.303 45.095C291.89 43.534 297.548 43.521 303.125 45.199C308.878 46.93 312.365 51.355 312.818 57.337C312.966 59.284 313.028 61.24 313.034 63.193C313.058 70.686 313.044 78.177 313.044 85.67C313.044 86.116 313.031 86.565 313.05 87.012C313.155 89.444 314.774 90.712 317.214 90.294C317.596 90.229 317.983 90.213 318.456 90.167ZM306.825 68.41C304.669 70.168 302.258 70.348 299.921 70.737C296.353 71.332 292.764 71.808 289.206 72.455C286.682 72.915 284.221 73.643 282.031 75.071C279.61 76.651 278.315 78.861 278.279 81.769C278.225 86.055 280.932 89.676 285.27 91.153C287.88 92.041 290.537 91.984 293.195 91.488C300.413 90.141 306.603 85.094 306.815 76.659C306.881 74 306.825 71.34 306.825 68.41Z" fill="#E12332"/>
<path fill-rule="evenodd" clip-rule="evenodd" d="M500 90.159C500 91.888 500 93.443 500 95.154C497.477 95.77 494.969 95.861 492.487 95.017C490.69 94.407 489.678 93.013 489.296 91.219C489.02 89.923 488.943 88.584 488.755 87.088C488.444 87.442 488.179 87.745 487.912 88.046C486.393 89.75 485.004 91.599 483.321 93.124C480.807 95.401 477.656 96.478 474.328 96.824C470.654 97.205 466.982 97.186 463.395 96.002C457.143 93.935 453.682 89.255 453.705 82.7C453.71 81.424 453.792 80.131 454.005 78.875C454.625 75.229 456.663 72.555 459.838 70.709C462.68 69.057 465.804 68.215 469.006 67.727C473.298 67.074 477.619 66.604 481.922 66.019C482.91 65.885 483.891 65.648 484.85 65.374C486.837 64.806 487.985 63.399 488.194 61.405C488.349 59.924 488.339 58.381 488.107 56.912C487.545 53.36 485.342 51.118 481.957 50.109C478.142 48.972 474.246 48.855 470.386 49.855C465.347 51.162 462.626 54.392 462.037 59.541C462 59.867 461.979 60.196 461.935 60.706C460.896 60.729 459.913 60.76 458.929 60.772C457.982 60.783 457.035 60.774 455.986 60.774C455.929 60.321 455.809 59.947 455.849 59.592C456.718 51.807 460.833 47.006 467.956 45.057C473.485 43.543 479.096 43.515 484.615 45.186C490.571 46.988 493.692 51.182 494.343 57.284C494.496 58.723 494.554 60.179 494.558 61.627C494.579 69.621 494.567 77.614 494.568 85.607C494.568 86.054 494.553 86.502 494.574 86.949C494.694 89.481 496.307 90.73 498.849 90.276C499.173 90.217 499.506 90.207 500 90.159ZM488.459 68.753C488.335 68.711 488.212 68.669 488.089 68.628C486.637 69.792 484.911 70.171 483.145 70.451C479.018 71.106 474.882 71.714 470.77 72.452C468.129 72.927 465.544 73.68 463.305 75.249C460.454 77.245 459.398 80.027 459.953 83.423C460.621 87.511 463.246 89.878 466.983 91.184C470.111 92.277 473.288 91.982 476.375 91.1C482.598 89.326 487.029 85.569 488.084 78.939C488.615 75.608 488.359 72.152 488.459 68.753Z" fill="#E12332"/>
<path fill-rule="evenodd" clip-rule="evenodd" d="M396.043 72.216C383.172 72.216 370.506 72.216 357.761 72.216C357.523 74.422 357.936 76.38 358.406 78.328C359.068 81.073 360.168 83.627 361.887 85.88C365.604 90.754 370.655 92.401 376.55 91.673C383.147 90.859 387.154 86.907 389.228 80.771C389.405 80.247 389.575 79.72 389.772 79.125C391.732 79.125 393.671 79.125 395.664 79.125C395.695 79.289 395.774 79.448 395.745 79.584C394.786 83.846 393.11 87.764 390.104 91.009C387.851 93.442 385.094 95.067 381.907 95.988C377.415 97.287 372.858 97.43 368.326 96.445C360.866 94.823 356.115 90.056 353.472 83.042C352.019 79.185 351.447 75.153 351.408 71.057C351.363 66.209 352.097 61.481 354.08 57.014C356.841 50.798 361.277 46.436 368.012 44.748C372.368 43.656 376.751 43.689 381.044 45.033C386.911 46.867 390.825 50.908 393.304 56.412C395.091 60.38 395.987 64.566 396.042 68.924C396.054 69.96 396.043 70.998 396.043 72.216ZM389.939 66.925C389.657 62.476 388.48 58.55 385.893 55.085C380.605 48.004 370.432 47.508 364.505 52.682C360.331 56.327 358.399 61.084 357.733 66.456C357.716 66.59 357.848 66.742 357.926 66.925C368.535 66.925 379.124 66.925 389.939 66.925Z" fill="#E12332"/>
<path fill-rule="evenodd" clip-rule="evenodd" d="M410.32 45.484C410.32 48.265 410.32 50.866 410.32 53.468C410.424 53.493 410.528 53.518 410.632 53.543C410.782 53.283 410.935 53.025 411.081 52.763C414.046 47.451 418.722 44.825 424.629 44.149C427.479 43.823 430.311 44.065 433.094 44.683C439.33 46.068 442.978 50.047 444.211 56.229C444.623 58.298 444.866 60.435 444.88 62.542C444.946 72.942 444.912 83.342 444.908 93.743C444.908 94.29 444.861 94.838 444.832 95.472C442.805 95.472 440.875 95.472 438.716 95.472C438.716 94.792 438.716 94.141 438.716 93.489C438.716 83.76 438.759 74.031 438.683 64.302C438.665 62.143 438.422 59.943 437.943 57.84C436.8 52.807 433.44 49.609 427.219 49.27C423.422 49.062 419.882 49.833 416.793 52.155C413.402 54.705 411.586 58.228 410.823 62.309C410.517 63.944 410.38 65.634 410.372 67.299C410.329 76.022 410.352 84.744 410.352 93.466C410.352 94.074 410.352 94.684 410.352 95.469C408.281 95.653 406.315 95.559 404.26 95.536C404.26 78.819 404.26 62.245 404.26 45.483C405.019 45.483 405.676 45.483 406.332 45.483C407.604 45.484 408.876 45.484 410.32 45.484Z" fill="#E12332"/>
<path fill-rule="evenodd" clip-rule="evenodd" d="M331.145 56.641C333.174 52.1 336.164 48.483 340.772 46.427C343.625 45.155 346.597 44.604 349.835 44.898C349.835 46.878 349.835 48.803 349.835 50.781C348.383 50.944 346.956 51.065 345.54 51.27C339.095 52.207 333.123 57.149 331.649 65.274C331.392 66.693 331.308 68.159 331.302 69.604C331.27 77.595 331.287 85.588 331.287 93.58C331.287 94.184 331.287 94.786 331.287 95.476C329.215 95.476 327.292 95.476 325.277 95.476C325.277 78.847 325.277 62.279 325.277 45.598C327.081 45.598 328.838 45.598 330.816 45.598C330.816 49.263 330.816 52.903 330.816 56.543C330.926 56.575 331.036 56.608 331.145 56.641Z" fill="#E12332"/>
<path fill-rule="evenodd" clip-rule="evenodd" d="M129.671 22.825C124.34 23.39 118.95 23.356 113.512 24.127C113.759 23.922 113.974 23.628 114.258 23.533C114.829 23.343 115.455 23.317 116.023 23.119C116.594 22.922 117.122 22.6 117.723 22.307C118.037 22.914 118.484 23.425 119.314 22.895C119.866 22.543 120.389 22.43 121.021 22.803C121.306 22.971 121.878 23.023 122.11 22.848C122.922 22.236 123.818 22.394 124.685 22.437C126.348 22.521 128.009 22.691 129.671 22.825Z" fill="#E12332"/>
<path fill-rule="evenodd" clip-rule="evenodd" d="M37.7993 22.461C37.4823 22.739 37.1663 23.018 36.6543 23.468C36.8583 22.947 36.9643 22.673 37.0713 22.401C37.3133 22.421 37.5563 22.441 37.7993 22.461Z" fill="black"/>
<path fill-rule="evenodd" clip-rule="evenodd" d="M26.9053 30.208C27.1653 29.865 27.4263 29.522 27.6873 29.179C27.7673 29.227 27.8463 29.276 27.9253 29.325C27.7183 29.701 27.5113 30.076 27.3043 30.452C27.1713 30.371 27.0383 30.29 26.9053 30.208Z" fill="black"/>
</g>
<defs>
<clipPath id="clip0_1544_44922">
<rect width="500" height="149.947" fill="white"/>
</clipPath>
</defs>
</svg>
