<svg width="283" height="283" viewBox="0 0 283 283" fill="none" xmlns="http://www.w3.org/2000/svg">
<rect width="283" height="283" fill="#1A1A1A"/>
<path d="M52.5803 283L52.595 281.499L27.692 278.555L27.5775 283H52.5803Z" fill="#181818"/>
<path d="M12.518 283L12.5594 276.841L1.61844e-05 275.302L5.3948e-06 283H12.518Z" fill="#181818"/>
<path d="M0 175.794L2.29112 173.503L31.857 173.512L0 141.655V175.794Z" fill="#181818"/>
<path d="M142.703 0L283 0L283 175.846L193.743 265.103L283 275.384V283H126.222L128.736 157.601L1.07896e-05 141.519L0 1.07896e-05L12.5249 1.61844e-05L10.6688 130.676L23.6817 117.663L27.5935 5.3948e-06L52.5851 1.07896e-05L51.0266 90.3183L125.504 15.8408L126.214 1.07896e-05H141.654L173.512 31.8571L143.835 31.9589L52.2166 123.577L153.753 135.647L152.324 272.331L165.336 259.318L168.936 137.31L193.922 140.172L192.681 231.973L267.159 157.495L269.97 16.367L142.703 0Z" fill="#181818"/>
</svg>
