<svg width="150" height="150" viewBox="0 0 283 283" xmlns="http://www.w3.org/2000/svg">
  <path d="M283 141.345V0L142.703 0L269.97 16.367L268.409 126.754L283 141.345Z" fill="#181818" opacity="0.5"/>
  <path d="M12.5249 1.61844e-05L0 1.07896e-05L1.07896e-05 141.519L128.736 157.601L126.754 268.409L141.345 283H283V275.384L193.743 265.103L283 175.846L283 141.352L268.42 126.772L267.159 157.495L192.681 231.973L193.922 140.572L168.936 137.31L165.336 259.318L152.324 272.331L153.753 135.647L52.2166 123.577L143.835 31.9589L173.512 31.8571L141.654 1.07896e-05H126.214L125.504 15.8408L51.0266 90.3183L52.5851 1.07896e-05L27.5935 5.3948e-06L23.6817 117.663L10.6688 130.676L12.5249 1.61844e-05Z" fill="#181818" opacity="0.5"/>
  <path d="M141.339 283L126.765 268.427L126.222 283H141.339Z" fill="#181818" opacity="0.5"/>
  <path d="M52.5803 283L52.595 281.499L27.692 278.555L27.5775 283H52.5803Z" fill="#181818" opacity="0.5"/>
  <path d="M12.518 283L12.5594 276.841L1.61844e-05 275.302L5.3948e-06 283H12.518Z" fill="#181818" opacity="0.5"/>
  <path d="M0 175.794L2.29112 173.503L31.857 173.512L0 141.655V175.794Z" fill="#181818" opacity="0.5"/>
</svg>