<svg width="1740" height="482" viewBox="0 0 1740 482" fill="none" xmlns="http://www.w3.org/2000/svg">
<path d="M0 0L133.313 236.879L233.286 59.202H299.94L166.639 295.743L266.601 473.398L366.59 296.285L533.427 0H466.575L300.016 296.134L266.573 355.169L233.265 295.879L366.597 58.9434L399.904 0H199.929L133.284 118.077L99.9856 59.0736L133.292 0H0Z" fill="white"/>
<path d="M1538.41 167.978C1537.61 167.935 1536.82 167.907 1536.01 167.907C1535.2 167.907 1534.41 167.935 1533.61 167.978C1516.54 168.958 1502.26 180.291 1496.94 195.792C1495.5 199.989 1494.71 204.485 1494.71 209.178C1494.71 213.889 1495.51 218.415 1496.97 222.634C1501.85 236.776 1514.21 247.437 1529.33 249.896C1531.51 250.255 1533.74 250.44 1536.01 250.44H1566.47H1570.16C1576.86 251.341 1582.03 257.075 1582.03 264.01C1582.03 270.846 1577.02 276.51 1570.47 277.539H1566.16H1529.16H1510.33L1495.03 305.345H1566.6C1567.17 305.375 1567.75 305.397 1568.32 305.397C1568.89 305.397 1569.45 305.375 1570.03 305.345C1587.42 304.645 1602.03 293.24 1607.47 277.539C1608.95 273.291 1609.76 268.731 1609.76 263.983C1609.76 259.234 1608.95 254.687 1607.48 250.44C1602.56 236.225 1590.11 225.53 1574.89 223.099C1573.45 222.87 1572 222.713 1570.52 222.634C1569.79 222.591 1569.05 222.569 1568.32 222.569C1567.57 222.569 1566.84 222.591 1566.11 222.634H1538.46H1533.55C1527.18 221.476 1522.34 215.905 1522.34 209.198C1522.34 202.528 1527.13 196.978 1533.47 195.792H1538.54H1575.07H1593.9L1609.21 167.979L1538.41 167.978Z" fill="white"/>
<path d="M762.764 167.974H794.456V275.411H872.027V305.29H762.764V167.974Z" fill="white"/>
<path d="M1086.26 168.108L1076.02 186.212L1101.84 237.585L1138.85 168.108H1172.29L1101.84 305.218L1033.09 168.108H1086.26Z" fill="white"/>
<path d="M1411.52 233.175C1415.26 233.175 1418.48 231.617 1421.19 228.069C1423.89 224.53 1425.24 219.997 1425.24 214.456C1425.24 208.792 1423.7 204.289 1420.61 200.934C1417.52 197.596 1414.16 195.916 1410.56 195.916H1371.15V233.381V261.001V305.218H1339.46V168.108H1412.69C1419.13 168.108 1425.08 169.46 1430.56 172.162C1436.04 174.865 1440.77 178.413 1444.76 182.787C1448.76 187.163 1451.88 192.117 1454.14 197.653C1456.39 203.192 1457.52 208.792 1457.52 214.456C1457.52 218.703 1457 222.791 1455.98 226.724C1454.95 230.642 1453.47 234.347 1451.53 237.821C1449.6 241.296 1447.25 244.421 1444.48 247.189C1441.7 249.962 1438.58 252.307 1435.11 254.238L1465.25 305.218H1429.5L1384.92 233.175H1411.52Z" fill="white"/>
<path d="M1004.77 277.412V305.218H908.324V168.108H1003.03V195.914H940.018V222.564H994.135V248.254H940.018V277.412H1004.77Z" fill="white"/>
<path d="M1300.79 277.412V305.218H1204.36V168.108H1299.06V195.914H1236.06V222.564H1290.17V248.254H1236.06V277.412H1300.79Z" fill="white"/>
<path d="M1740 277.412V305.218H1643.56V168.108H1738.28V195.914H1675.26V222.564H1729.37V248.254H1675.26V277.412H1740Z" fill="white"/>
<path d="M670.774 277.291C648.32 277.291 630.12 259.101 630.12 236.671C630.12 214.233 648.32 196.052 670.774 196.052C682.313 196.052 692.707 200.87 700.106 208.585L720.921 187.785C708.191 174.752 690.442 166.629 670.774 166.629C632.064 166.629 600.682 197.988 600.682 236.671C600.682 275.346 632.064 306.705 670.774 306.705C690.309 306.705 707.959 298.704 720.671 285.828L699.855 265.021C692.474 272.586 682.181 277.291 670.774 277.291Z" fill="white"/>
</svg>
