<svg width="46" height="46" viewBox="0 0 46 46" fill="none" xmlns="http://www.w3.org/2000/svg">
<rect x="5.71558" width="33.6685" height="3.03641" fill="#F2F0E0"/>
<rect x="16.7003" y="11.074" width="11.7884" height="2.8578" fill="#F2F0E0"/>
<rect x="16.7003" y="31.7038" width="11.7884" height="2.8578" fill="#F2F0E0"/>
<rect x="10.9847" y="16.9682" width="2.67919" height="11.6991" fill="#F2F0E0"/>
<rect x="31.3466" y="16.9682" width="2.67919" height="11.6991" fill="#F2F0E0"/>
<rect x="5.71558" y="42.6885" width="33.6685" height="3.03641" fill="#F2F0E0"/>
<rect x="2.85785" y="3.03644" width="2.8578" height="3.03641" fill="#F2F0E0"/>
<rect x="39.3842" y="3.03644" width="2.8578" height="3.03641" fill="#F2F0E0"/>
<rect x="28.4887" y="13.9318" width="2.8578" height="3.03641" fill="#F2F0E0"/>
<rect x="28.4887" y="28.6674" width="2.8578" height="3.03641" fill="#F2F0E0"/>
<rect x="13.8425" y="13.9318" width="2.8578" height="3.03641" fill="#F2F0E0"/>
<rect x="13.8425" y="28.6674" width="2.8578" height="3.03641" fill="#F2F0E0"/>
<rect x="33.49" y="7.76965" width="3.92947" height="3.75086" fill="#F2F0E0"/>
<rect x="2.85785" y="39.6521" width="2.8578" height="3.03641" fill="#F2F0E0"/>
<rect x="39.3842" y="39.6521" width="2.8578" height="3.03641" fill="#F2F0E0"/>
<rect y="6.07281" width="2.8578" height="33.5791" fill="#F2F0E0"/>
<rect x="42.2419" y="6.07281" width="2.8578" height="33.5791" fill="#F2F0E0"/>
</svg>
