<svg width="111" height="111" viewBox="0 0 111 111" fill="none" xmlns="http://www.w3.org/2000/svg">
<circle cx="55.5" cy="55.5" r="55.5" fill="#474747"/>
<rect x="16.799" y="55.684" width="4.05556" height="4.05556" transform="rotate(-15 16.799 55.684)" fill="#F2F0E0"/>
<rect x="20.7165" y="54.6343" width="4.05556" height="4.05556" transform="rotate(-15 20.7165 54.6343)" fill="#F2F0E0"/>
<rect x="21.7661" y="58.5516" width="4.05556" height="4.05556" transform="rotate(-15 21.7661 58.5516)" fill="#F2F0E0"/>
<rect x="22.8158" y="62.469" width="4.05556" height="4.05556" transform="rotate(-15 22.8158 62.469)" fill="#F2F0E0"/>
<rect x="23.8654" y="66.3864" width="4.05556" height="4.05556" transform="rotate(-15 23.8654 66.3864)" fill="#F2F0E0"/>
<rect x="24.9151" y="70.3037" width="4.05556" height="4.05556" transform="rotate(-15 24.9151 70.3037)" fill="#F2F0E0"/>
<rect x="36.6669" y="67.1548" width="4.05556" height="4.05556" transform="rotate(-15 36.6669 67.1548)" fill="#F2F0E0"/>
<rect x="75.8405" y="56.6583" width="4.05556" height="4.05556" transform="rotate(-15 75.8405 56.6583)" fill="#C782EA"/>
<rect x="87.5928" y="53.5093" width="4.05556" height="4.05556" transform="rotate(-15 87.5928 53.5093)" fill="#C782EA"/>
<rect x="35.6172" y="63.2374" width="4.05556" height="4.05556" transform="rotate(-15 35.6172 63.2374)" fill="#F2F0E0"/>
<rect x="74.7909" y="52.7408" width="4.05556" height="4.05556" transform="rotate(-15 74.7909 52.7408)" fill="#C3E88D"/>
<rect x="86.5431" y="49.5919" width="4.05556" height="4.05556" transform="rotate(-15 86.5431 49.5919)" fill="#C782EA"/>
<rect x="55.204" y="57.9891" width="4.05556" height="4.05556" transform="rotate(-15 55.204 57.9891)" fill="#C3E88D"/>
<rect x="66.9563" y="54.8402" width="4.05556" height="4.05556" transform="rotate(-15 66.9563 54.8402)" fill="#C3E88D"/>
<rect x="64.857" y="47.0055" width="4.05556" height="4.05556" transform="rotate(-15 64.857 47.0055)" fill="#C3E88D"/>
<rect x="34.5676" y="59.3201" width="4.05556" height="4.05556" transform="rotate(-15 34.5676 59.3201)" fill="#F2F0E0"/>
<rect x="73.7412" y="48.8235" width="4.05556" height="4.05556" transform="rotate(-15 73.7412 48.8235)" fill="#C3E88D"/>
<rect x="85.4935" y="45.6746" width="4.05556" height="4.05556" transform="rotate(-15 85.4935 45.6746)" fill="#C782EA"/>
<rect x="54.1544" y="54.0718" width="4.05556" height="4.05556" transform="rotate(-15 54.1544 54.0718)" fill="#C3E88D"/>
<rect x="33.5179" y="55.4027" width="4.05556" height="4.05556" transform="rotate(-15 33.5179 55.4027)" fill="#F2F0E0"/>
<rect x="72.6916" y="44.9062" width="4.05556" height="4.05556" transform="rotate(-15 72.6916 44.9062)" fill="#C3E88D"/>
<rect x="84.4438" y="41.7572" width="4.05556" height="4.05556" transform="rotate(-15 84.4438 41.7572)" fill="#C3E88D"/>
<rect x="53.1048" y="50.1545" width="4.05556" height="4.05556" transform="rotate(-15 53.1048 50.1545)" fill="#F2F0E0"/>
<rect x="32.4683" y="51.4854" width="4.05556" height="4.05556" transform="rotate(-15 32.4683 51.4854)" fill="#F2F0E0"/>
<rect x="71.6419" y="40.9889" width="4.05556" height="4.05556" transform="rotate(-15 71.6419 40.9889)" fill="#C3E88D"/>
<rect x="83.3942" y="37.8398" width="4.05556" height="4.05556" transform="rotate(-15 83.3942 37.8398)" fill="#C3E88D"/>
<rect x="36.3858" y="50.4357" width="4.05556" height="4.05556" transform="rotate(-15 36.3858 50.4357)" fill="#F2F0E0"/>
<rect x="40.3033" y="49.386" width="4.05556" height="4.05556" transform="rotate(-15 40.3033 49.386)" fill="#F2F0E0"/>
<rect x="55.9726" y="45.1874" width="4.05556" height="4.05556" transform="rotate(-15 55.9726 45.1874)" fill="#F2F0E0"/>
<rect x="60.1712" y="60.8568" width="4.05556" height="4.05556" transform="rotate(-15 60.1712 60.8568)" fill="#C3E88D"/>
<rect x="44.2205" y="48.3364" width="4.05556" height="4.05556" transform="rotate(-15 44.2205 48.3364)" fill="#F2F0E0"/>
<rect x="59.8901" y="44.1377" width="4.05556" height="4.05556" transform="rotate(-15 59.8901 44.1377)" fill="#C3E88D"/>
<rect x="64.0887" y="59.8071" width="4.05556" height="4.05556" transform="rotate(-15 64.0887 59.8071)" fill="#C3E88D"/>
<rect x="38.485" y="58.2704" width="4.05556" height="4.05556" transform="rotate(-15 38.485 58.2704)" fill="#F2F0E0"/>
<rect x="77.6588" y="47.7738" width="4.05556" height="4.05556" transform="rotate(-15 77.6588 47.7738)" fill="#C3E88D"/>
<rect x="42.4026" y="57.2207" width="4.05556" height="4.05556" transform="rotate(-15 42.4026 57.2207)" fill="#F2F0E0"/>
<rect x="81.5763" y="46.7241" width="4.05556" height="4.05556" transform="rotate(-15 81.5763 46.7241)" fill="#C782EA"/>
<rect x="40.5844" y="66.1051" width="4.05556" height="4.05556" transform="rotate(-15 40.5844 66.1051)" fill="#F2F0E0"/>
<rect x="44.5019" y="65.0554" width="4.05556" height="4.05556" transform="rotate(-15 44.5019 65.0554)" fill="#C3E88D"/>
<rect x="48.4191" y="64.0059" width="4.05556" height="4.05556" transform="rotate(-15 48.4191 64.0059)" fill="#C3E88D"/>
<rect x="24.6337" y="53.5846" width="4.05556" height="4.05556" transform="rotate(-15 24.6337 53.5846)" fill="#F2F0E0"/>
<path d="M40.1578 80.7705L39.6402 78.8387L41.572 78.3211L42.0897 80.2529L40.1578 80.7705ZM40.6754 82.7024L38.7436 83.22L38.2259 81.2882L40.1578 80.7705L40.6754 82.7024ZM38.7436 83.22L39.2612 85.1519L37.3294 85.6695L36.8117 83.7377L38.7436 83.22ZM39.7789 87.0837L39.2612 85.1519L41.1931 84.6343L41.7107 86.5661L39.7789 87.0837ZM41.7107 86.5661L43.6426 86.0485L44.1602 87.9803L42.2284 88.498L41.7107 86.5661ZM46.471 81.1495L44.5391 81.6671L43.5039 77.8034L45.4357 77.2858L46.471 81.1495ZM50.3347 80.1142L48.4028 80.6318L47.3676 76.7681L49.2994 76.2505L50.3347 80.1142ZM48.4028 80.6318L48.9205 82.5637L46.9886 83.0813L46.471 81.1495L48.4028 80.6318ZM48.0239 86.945L46.0921 87.4627L45.0568 83.599L46.9886 83.0813L48.0239 86.945ZM51.8876 85.9098L49.9558 86.4274L48.9205 82.5637L50.8523 82.0461L51.8876 85.9098ZM54.1984 79.0789L52.2665 79.5966L51.2313 75.7329L53.1631 75.2152L54.1984 79.0789ZM58.0621 78.0437L56.1302 78.5613L55.095 74.6976L57.0268 74.18L58.0621 78.0437ZM56.1302 78.5613L56.6479 80.4931L54.716 81.0108L54.1984 79.0789L56.1302 78.5613ZM55.7513 84.8745L53.8195 85.3921L52.7842 81.5284L54.716 81.0108L55.7513 84.8745ZM59.615 83.8392L57.6832 84.3569L56.6479 80.4931L58.5797 79.9755L59.615 83.8392ZM61.9258 77.0084L60.8905 73.1447L62.8224 72.627L63.8577 76.4907L61.9258 77.0084ZM63.4787 82.8039L61.5469 83.3216L59.994 77.526L61.9258 77.0084L63.4787 82.8039ZM67.7214 75.4555L65.7895 75.9731L64.7542 72.1094L66.6861 71.5918L67.7214 75.4555ZM71.5851 74.4202L69.6532 74.9378L68.6179 71.0741L70.5498 70.5565L71.5851 74.4202ZM69.6532 74.9378L70.1708 76.8697L68.239 77.3873L67.7214 75.4555L69.6532 74.9378ZM69.2743 81.251L67.3424 81.7687L66.3071 77.905L68.239 77.3873L69.2743 81.251ZM73.138 80.2157L71.2061 80.7334L70.1708 76.8697L72.1027 76.352L73.138 80.2157ZM75.4488 73.3849L73.5169 73.9026L72.4816 70.0389L74.4135 69.5212L75.4488 73.3849ZM79.3125 72.3496L77.3806 72.8673L76.3453 69.0036L78.2772 68.4859L79.3125 72.3496ZM77.3806 72.8673L77.8983 74.7991L75.9664 75.3168L75.4488 73.3849L77.3806 72.8673ZM77.0017 79.1805L75.0698 79.6981L74.0346 75.8344L75.9664 75.3168L77.0017 79.1805ZM80.8654 78.1452L78.9335 78.6628L77.8983 74.7991L79.8301 74.2815L80.8654 78.1452ZM80.7267 69.9001L80.209 67.9683L82.1409 67.4507L82.6585 69.3825L80.7267 69.9001ZM83.1762 71.3144L82.6585 69.3825L84.5904 68.8649L85.108 70.7967L83.1762 71.3144ZM85.108 70.7967L87.0399 70.2791L87.5575 72.2109L85.6257 72.7286L85.108 70.7967ZM86.1433 74.6604L84.2114 75.1781L83.6938 73.2462L85.6257 72.7286L86.1433 74.6604ZM84.2114 75.1781L84.7291 77.1099L82.7972 77.6276L82.2796 75.6957L84.2114 75.1781Z" fill="#F2F0E0"/>
</svg>
