<svg width="801" height="223" viewBox="0 0 801 223" fill="none" xmlns="http://www.w3.org/2000/svg">
<rect width="44.5" height="44.5" fill="#F2F0E0"/>
<rect x="44.5017" width="44.5" height="44.5" fill="#F2F0E0"/>
<rect x="44.5017" y="44.5" width="44.5" height="44.5" fill="#F2F0E0"/>
<rect x="44.5017" y="89.0003" width="44.5" height="44.5" fill="#F2F0E0"/>
<rect x="44.5017" y="133.5" width="44.5" height="44.5" fill="#F2F0E0"/>
<rect x="44.5017" y="178" width="44.5" height="44.5" fill="#F2F0E0"/>
<rect x="177.998" y="178" width="44.5" height="44.5" fill="#F2F0E0"/>
<rect x="622.999" y="178" width="44.5" height="44.5" fill="#C782EA"/>
<rect x="756.5" y="178" width="44.5" height="44.5" fill="#C782EA"/>
<rect x="177.998" y="133.5" width="44.5" height="44.5" fill="#F2F0E0"/>
<rect x="622.999" y="133.5" width="44.5" height="44.5" fill="#C3E88D"/>
<rect x="756.5" y="133.5" width="44.5" height="44.5" fill="#C782EA"/>
<rect x="400.499" y="133.5" width="44.5" height="44.5" fill="#C3E88D"/>
<rect x="534" y="133.5" width="44.5" height="44.5" fill="#C3E88D"/>
<rect x="534" y="44.5" width="44.5" height="44.5" fill="#C3E88D"/>
<rect x="177.998" y="89.0003" width="44.5" height="44.5" fill="#F2F0E0"/>
<rect x="622.999" y="89.0003" width="44.5" height="44.5" fill="#C3E88D"/>
<rect x="756.5" y="89.0003" width="44.5" height="44.5" fill="#C782EA"/>
<rect x="400.499" y="89.0003" width="44.5" height="44.5" fill="#C3E88D"/>
<rect x="177.998" y="44.5" width="44.5" height="44.5" fill="#F2F0E0"/>
<rect x="622.999" y="44.5" width="44.5" height="44.5" fill="#C3E88D"/>
<rect x="756.5" y="44.5" width="44.5" height="44.5" fill="#C3E88D"/>
<rect x="400.499" y="44.5" width="44.5" height="44.5" fill="#F2F0E0"/>
<rect x="177.998" width="44.5" height="44.5" fill="#F2F0E0"/>
<rect x="622.999" width="44.5" height="44.5" fill="#C3E88D"/>
<rect x="756.5" width="44.5" height="44.5" fill="#C3E88D"/>
<rect x="222.5" width="44.5" height="44.5" fill="#F2F0E0"/>
<rect x="267.002" width="44.5" height="44.5" fill="#F2F0E0"/>
<rect x="445" width="44.5" height="44.5" fill="#F2F0E0"/>
<rect x="445" y="178" width="44.5" height="44.5" fill="#C3E88D"/>
<rect x="311.5" width="44.5" height="44.5" fill="#F2F0E0"/>
<rect x="489.502" width="44.5" height="44.5" fill="#C3E88D"/>
<rect x="489.502" y="178" width="44.5" height="44.5" fill="#C3E88D"/>
<rect x="222.5" y="89.0003" width="44.5" height="44.5" fill="#F2F0E0"/>
<rect x="667.5" y="89.0003" width="44.5" height="44.5" fill="#C3E88D"/>
<rect x="267.002" y="89.0003" width="44.5" height="44.5" fill="#F2F0E0"/>
<rect x="712.002" y="89.0003" width="44.5" height="44.5" fill="#C782EA"/>
<rect x="222.5" y="178" width="44.5" height="44.5" fill="#F2F0E0"/>
<rect x="267.002" y="178" width="44.5" height="44.5" fill="#C3E88D"/>
<rect x="311.5" y="178" width="44.5" height="44.5" fill="#C3E88D"/>
<rect x="89.0001" width="44.5" height="44.5" fill="#F2F0E0"/>
</svg>
